# Blender v2.79 (sub 0) OBJ File: 'Controls.blend'
# www.blender.org
mtllib Controls.mtl
o Cube
v 0.611830 0.040730 -0.611830
v 0.611830 0.040730 0.611830
v -0.611830 0.040730 0.611830
v -0.611830 0.040730 -0.611830
v 0.611830 0.169127 -0.611830
v 0.611829 0.169127 0.611830
v -0.611830 0.169127 0.611830
v -0.611830 0.169127 -0.611830
v 0.421658 0.209858 -0.421658
v 0.421658 0.209858 0.421658
v -0.421658 0.209858 -0.421658
v -0.421658 0.209858 0.421658
v 0.421658 3.647461 -0.421658
v -0.421658 3.647461 -0.421658
v -0.421658 2.872803 0.421658
v 0.421658 2.872803 0.421658
v 0.602755 3.813814 -0.602754
v -0.602754 3.813814 -0.602754
v -0.602755 2.706451 0.602754
v 0.602754 2.706450 0.602755
v 0.602755 3.977133 -0.452731
v -0.602754 3.977133 -0.452732
v -0.602755 2.869770 0.752777
v 0.602754 2.869769 0.752778
v 0.464657 3.850278 -0.314633
v -0.464656 3.850278 -0.314634
v -0.464657 2.996625 0.614679
v 0.464656 2.996624 0.614679
v 0.464657 3.767347 -0.390813
v -0.464656 3.767347 -0.390813
v -0.464657 2.913693 0.538499
v 0.464656 2.913693 0.538500
vn 0.0000 -1.0000 -0.0000
vn 0.2094 0.9778 0.0000
vn 1.0000 0.0000 0.0000
vn -0.0000 -0.0000 1.0000
vn -1.0000 -0.0000 -0.0000
vn 0.0000 0.0000 -1.0000
vn -0.2094 0.9778 -0.0000
vn 0.0000 0.9778 -0.2094
vn -0.0000 0.9778 0.2094
vn -0.0000 -0.7364 -0.6765
vn -0.0000 -0.6765 0.7364
vn 0.0000 -0.7365 -0.6765
vn 0.0000 0.7364 0.6765
vn 0.0000 0.6765 -0.7364
usemtl Material
s off
f 1//1 2//1 3//1 4//1
f 6//2 5//2 9//2 10//2
f 1//3 5//3 6//3 2//3
f 2//4 6//4 7//4 3//4
f 3//5 7//5 8//5 4//5
f 5//6 1//6 4//6 8//6
f 11//5 12//5 15//5 14//5
f 8//7 7//7 12//7 11//7
f 5//8 8//8 11//8 9//8
f 7//9 6//9 10//9 12//9
f 9//6 11//6 14//6 13//6
f 12//4 10//4 16//4 15//4
f 10//3 9//3 13//3 16//3
f 15//10 16//10 20//10 19//10
f 19//11 20//11 24//11 23//11
f 14//10 15//10 19//10 18//10
f 13//12 14//12 18//12 17//12
f 16//10 13//10 17//10 20//10
f 24//13 21//13 25//13 28//13
f 17//14 18//14 22//14 21//14
f 20//3 17//3 21//3 24//3
f 18//5 19//5 23//5 22//5
f 27//14 28//14 32//14 31//14
f 22//13 23//13 27//13 26//13
f 23//13 24//13 28//13 27//13
f 21//13 22//13 26//13 25//13
f 29//13 30//13 31//13 32//13
f 25//11 26//11 30//11 29//11
f 28//5 25//5 29//5 32//5
f 26//3 27//3 31//3 30//3
