# Blender v2.79 (sub 0) OBJ File: 'Placard.blend'
# www.blender.org
mtllib Placard.mtl
o Cube
v 0.711259 0.000000 -1.100000
v 0.711259 0.000000 1.100000
v -0.730292 0.000000 1.100000
v -0.730292 0.000000 -1.100000
v 0.711260 3.000000 -1.100000
v 0.711259 3.000000 1.100001
v -0.730292 3.000000 1.100000
v -0.730292 3.000000 -1.100000
v 0.711259 0.000000 -0.918446
v 0.711259 0.000000 0.909645
v 0.711259 2.729174 0.909645
v 0.711260 2.729174 -0.918446
v -0.530407 0.000000 -0.918446
v -0.530407 0.000000 0.909645
v -0.530408 2.729174 0.909645
v -0.530407 2.729174 -0.918446
vn 0.0000 -1.0000 0.0000
vn 0.0000 1.0000 0.0000
vn 1.0000 -0.0000 0.0000
vn -0.0000 -0.0000 1.0000
vn -1.0000 -0.0000 -0.0000
vn 0.0000 0.0000 -1.0000
usemtl Material
s off
f 10//1 2//1 3//1 4//1 1//1 9//1 13//1 14//1
f 5//2 8//2 7//2 6//2
f 1//3 5//3 12//3 9//3
f 2//4 6//4 7//4 3//4
f 3//5 7//5 8//5 4//5
f 5//6 1//6 4//6 8//6
f 12//1 11//1 15//1 16//1
f 11//3 6//3 2//3 10//3
f 12//3 5//3 6//3 11//3
f 13//3 16//3 15//3 14//3
f 9//4 12//4 16//4 13//4
f 11//6 10//6 14//6 15//6
