# Blender v2.79 (sub 0) OBJ File: 'Stairs.blend'
# www.blender.org
mtllib Stairs.mtl
o Cube_Cube.001
v -1.000000 -1.000000 1.000000
v -1.000000 1.000000 1.000000
v -1.000000 -1.000000 -1.000000
v 1.000000 -1.000000 1.000000
v 1.000000 1.000000 1.000000
v 1.000000 -1.000000 -1.000000
vn 0.0000 0.0000 1.0000
vn 0.0000 -1.0000 0.0000
vn 0.0000 0.7071 -0.7071
vn -1.0000 0.0000 0.0000
vn 1.0000 0.0000 0.0000
usemtl None
s off
f 4//1 5//1 2//1 1//1
f 3//2 6//2 4//2 1//2
f 2//3 5//3 6//3 3//3
f 1//4 2//4 3//4
f 6//5 5//5 4//5
