# Blender v2.79 (sub 0) OBJ File: 'Water.blend'
# www.blender.org
mtllib Water.mtl
o Plane
v -0.009695 0.143971 -2.804329
v -0.339982 0.143971 -1.861460
v -0.910327 0.143971 -0.675754
v -1.271799 0.143971 0.131606
v -1.418545 0.143971 0.569191
v -1.404766 0.143967 0.979588
v -1.290464 0.143971 1.308434
v -0.964775 0.143971 1.679944
v -0.567783 0.143967 1.901600
v -0.017313 0.143971 2.036352
v 0.431927 0.143971 1.946783
v 0.841823 0.143971 1.681908
v 1.150500 0.143971 1.302645
v 1.299811 0.143971 0.797425
v 1.247664 0.143971 0.256209
v 0.889893 0.143971 -0.464202
v 0.316432 0.143967 -1.675623
v 0.166225 0.143971 -2.183038
v -0.009695 -0.154760 -2.804329
v -0.339982 -0.154760 -1.861460
v -0.910327 -0.154760 -0.675754
v -1.271799 -0.154760 0.131606
v -1.418545 -0.154760 0.569191
v -1.404766 -0.154755 0.979588
v -1.290464 -0.154760 1.308434
v -0.964775 -0.154760 1.679944
v -0.567783 -0.154755 1.901600
v -0.017313 -0.154760 2.036352
v 0.431927 -0.154760 1.946783
v 0.841823 -0.154760 1.681908
v 1.150500 -0.154760 1.302645
v 1.299811 -0.154760 0.797425
v 1.247664 -0.154760 0.256209
v 0.889893 -0.154760 -0.464202
v 0.316432 -0.154755 -1.675623
v 0.166225 -0.154760 -2.183038
vn 0.0000 1.0000 0.0000
vn 0.0000 -1.0000 0.0000
vn -0.9438 0.0000 -0.3306
vn -0.9012 0.0000 -0.4335
vn -0.9127 0.0000 -0.4086
vn -0.9481 0.0000 -0.3180
vn -0.9994 0.0000 0.0336
vn -0.9446 0.0000 0.3283
vn -0.7520 0.0000 0.6592
vn -0.4875 0.0000 0.8731
vn -0.2378 0.0000 0.9713
vn 0.1955 0.0000 0.9807
vn 0.5427 0.0000 0.8399
vn 0.7756 0.0000 0.6312
vn 0.9590 0.0000 0.2834
vn 0.9954 0.0000 -0.0959
vn 0.8956 0.0000 -0.4448
vn 0.9038 0.0000 -0.4279
vn 0.9589 0.0000 -0.2838
vn 0.9622 0.0000 -0.2724
usemtl None
s off
f 6//1 7//1 8//1 9//1 10//1 11//1 12//1 13//1 14//1 15//1 16//1 17//1 18//1 1//1 2//1 3//1 4//1 5//1
f 24//2 23//2 22//2 21//2 20//2 19//2 36//2 35//2 34//2 33//2 32//2 31//2 30//2 29//2 28//2 27//2 26//2 25//2
f 2//3 1//3 19//3 20//3
f 3//4 2//4 20//4 21//4
f 4//5 3//5 21//5 22//5
f 5//6 4//6 22//6 23//6
f 6//7 5//7 23//7 24//7
f 7//8 6//8 24//8 25//8
f 8//9 7//9 25//9 26//9
f 9//10 8//10 26//10 27//10
f 10//11 9//11 27//11 28//11
f 11//12 10//12 28//12 29//12
f 12//13 11//13 29//13 30//13
f 13//14 12//14 30//14 31//14
f 14//15 13//15 31//15 32//15
f 15//16 14//16 32//16 33//16
f 16//17 15//17 33//17 34//17
f 17//18 16//18 34//18 35//18
f 18//19 17//19 35//19 36//19
f 1//20 18//20 36//20 19//20
